name processed_emg_signals
nRows=98
nColumns=7
 
endheader
time	LGLTMED	LRF	LADDLONG	LST	LTA	LGM
1.455	0.5151801863692893	0.1280796081694539	0.3804874172991782	1.0	0.2067689932647912	0.7086680549581642
1.456	0.5147530705307546	0.1256761939117868	0.3795907093517879	0.9997104073625894	0.2056761904189544	0.7041080488631738
1.457	0.514330669535111	0.1234436009513421	0.3787425612238168	0.9991181498440034	0.2045302785193349	0.6994135342081687
1.458	0.5139114277597233	0.1213790705166163	0.3779399877238719	0.9982276397977896	0.2033315358422566	0.6945890174023109
1.459	0.5134938672825331	0.1194797364021494	0.3771800227972163	0.997043562261112	0.202080324087077	0.689639043867608
1.46	0.5130765910449645	0.1177426300453197	0.3764597245174063	0.9955708659541852	0.2007770868377733	0.6845681927035123
1.461	0.5126582857908513	0.1161646856104893	0.3757761799685156	0.9938147540615884	0.1994223479457708	0.679381071379436
1.462	0.5122377247845123	0.1147427450725996	0.3751265100093501	0.991780674815226	0.198016709839968	0.6740823104607901
1.463	0.51181377031324	0.1134735632932834	0.3745078739132434	0.9894743118964726	0.1965608517700301	0.6686765583727134
1.464	0.5113853759805638	0.1123538130829466	0.3739174738770525	0.9869015746732898	0.1950555279890208	0.6631684762050923
1.465	0.5109515887966775	0.1113800902430456	0.3733525593942902	0.984068588286551	0.1935015658810161	0.6575627325625286
1.466	0.5105115510720372	0.1105489185838811	0.3728104314866179	0.9809816835980646	0.1918998640389827	0.6518639984635645
1.467	0.5100645021192535	0.1098567549134333	0.3722884467884998	0.9776473870104326	0.190251390297638	0.6460769422943641
1.468	0.5096097797675919	0.1092999939937907	0.371784021478525	0.9740724101664068	0.188557179725718	0.6402062248231426
1.469	0.5091468216934715	0.1088749734617181	0.3712946350518657	0.9702636395328336	0.1868183325818833	0.6342564942828528
1.47	0.5086751665694186	0.1085779787103073	0.3708178339271953	0.9662281258721452	0.1850360122384906	0.6282323815309997
1.471	0.508194455033437	0.1084052477284419	0.3703512348818644	0.9619730736025992	0.1832114430773394	0.6221384952963975
1.472	0.5077044304803157	0.1083529758948907	0.3698925283090168	0.9575058300472292	0.1813459083613838	0.6159794175231634
1.473	0.5072049396765859	0.1084173207236473	0.3694394812900172	0.9528338745711872	0.1794407480862049	0.6097596988222582
1.474	0.5066959332008074	0.10859440655736	0.3689899404758741	0.9479648076081828	0.1774973568146897	0.6034838540402877
1.475	0.5061774657109815	0.1088803292060852	0.3685418347703112	0.9429063395791633	0.1755171814982789	0.5971563579544944
1.476	0.5056496960406366	0.1092711605287036	0.3680931778078805	0.9376662797092996	0.1735017192880166	0.5907816411020083
1.477	0.5051128871244756	0.1097629529549426	0.3676420702191887	0.9322525247516444	0.1714525153384572	0.584364085750605
1.478	0.5045674057539253	0.1103517439457263	0.3671867016761806	0.9266730476270324	0.169371160607315	0.5779080220169179
1.479	0.5040137221617409	0.111033560389827	0.3667253527107168	0.9209358859907022	0.1672592896533306	0.5714177241368039
1.48	0.5034524094342221	0.1118044229345266	0.3662563963005099	0.9150491307375404	0.1651185784345635	0.5648974068913509
1.481	0.502884142748856	0.1126603502480779	0.3657782992184318	0.9090209144606076	0.1629507421089505	0.5583512221913484
1.482	0.5023096984349796	0.1135973632116455	0.3652896231423042	0.9028593998810548	0.1607575328388028	0.5517832558223092
1.483	0.5017299528544628	0.1146114890384685	0.364789025524745	0.8965727682711605	0.1585407376008147	0.5451975243515214
1.484	0.501145881098798	0.115698765317935	0.3642752602240585	0.8901692078952423	0.1563021760030984	0.5385979721978845
1.485	0.5005585554983394	0.1168552439823014	0.3637471778987419	0.8836569024955712	0.1540436981107058	0.5319884688645863
1.486	0.4999691439387954	0.1180769951937557	0.3632037261693073	0.877044019851942	0.1517671822810545	0.5253728063340642
1.487	0.4993789079800769	0.1193601111498179	0.3626439495513574	0.8703387004437748	0.149474533010431	0.5187546966243483
1.488	0.4987892007724428	0.1207007098046583	0.3620669891641515	0.8635490462428033	0.1471676787925679	0.5121377695059725
1.489	0.4982014647653154	0.1220949385044549	0.3614720822184893	0.8566831096624085	0.1448485699900434	0.5055255703790821
1.49	0.4976172292044348	0.1235389775345953	0.3608585612883477	0.8497488826875619	0.1425191767192095	0.498921558311231
1.491	0.4970381074146024	0.1250290435765656	0.3602258533713564	0.8427542862072528	0.1401814867497615	0.4923291042375893
1.492	0.4964657938680366	0.1265613930726946	0.3595734787439998	0.8357071595698145	0.1378375034204219	0.4857514893263844
1.493	0.4959020610420828	0.1281323254968671	0.3589010496179988	0.8286152503805279	0.1354892435730684	0.4791919035137877
1.494	0.4953487560742257	0.1297381865292619	0.3582082686051496	0.8214862045603208	0.1331387355081447	0.4726534442132117
1.495	0.4948077972251434	0.1313753711333981	0.3574949269987729	0.8143275566842763	0.1307880169649576	0.466139115204247
1.496	0.4942811701623909	0.1330403265331887	0.3567609028799479	0.8071467206186298	0.12843913313067	0.4596518257061084
1.497	0.4937709240777225	0.1347295550879399	0.3560061590584996	0.7999509804745045	0.1260941346820654	0.4531943896399732
1.498	0.4932791676512038	0.1364396170627899	0.3552307408591743	0.79274748189562	0.1237550758639866	0.4467695250839978
1.499	0.492808064875106	0.1381671332921703	0.3544347737644496	0.7855432236956695	0.121424012608128	0.4403798539242839
1.5	0.4923598307502168	0.1399087877338503	0.3536184609264555	0.7783450498589988	0.1191030006955221	0.4340279017045746
1.5010000000000001	0.4919367268665865	0.1416613299112471	0.3527820805603883	0.7711596419161667	0.1167940939656773	0.4277160976771809
1.502	0.491541056880162	0.1434215772416678	0.3519259832310696	0.7639935117039748	0.1144993425750639	0.4214467750572183
1.5030000000000001	0.491175161896247	0.1451864172490072	0.3510505890451207	0.7568529945176561	0.1122207913073253	0.4152221714817468
1.504	0.4908414157702934	0.1469528096596011	0.3501563847602673	0.7497442426612366	0.1099604779373347	0.409044429674587
1.5050000000000001	0.490542220336461	0.1487177883807144	0.3492439208229726	0.7426732194002618	0.1077204316508926	0.4029155983166399
1.506	0.490280000574535	0.1504784633614757	0.3483138083449261	0.7356456933194971	0.1055026715215226	0.3968376331205771
1.5070000000000001	0.4900571997258571	0.1522320223359684	0.3473667160285101	0.7286672330868341	0.1033092050454044	0.3908123981076573
1.508	0.4898762743685711	0.1539757324489104	0.3464033670495998	0.7217432026236176	0.101142026735236	0.3848416670834502
1.5090000000000001	0.489739689461878	0.1557069417638911	0.3454245359064316	0.7148787566807857	0.0990031167734391	0.3789271253084253
1.51	0.4896499133680231	0.1574230806551208	0.3444310452415493	0.7080788368194656	0.0968944397249298	0.3730703713587733
1.5110000000000001	0.4896094128597559	0.1591216630830474	0.3434237626441752	0.701348167793583	0.0948179433094381	0.3672729191726246
1.512	0.489620648120238	0.1608002877547544	0.3424035974389187	0.694691254330849	0.0927755572330538	0.3615362002765293
1.5130000000000001	0.489686067741281	0.1624566391699543	0.3413714974675417	0.6881123783072234	0.0907691920785751	0.3558615661864823
1.514	0.4898081037252912	0.1640884885532214	0.3403284458691566	0.6816155963087818	0.088800738254039	0.3502502909770522
1.5150000000000001	0.4899891664961147	0.165693694673389	0.3392754578646792	0.6752047375739954	0.0868720649986741	0.3447035740112956
1.516	0.4902316399243087	0.1672702045508672	0.3382135775505318	0.668883402308522	0.0849850194454008	0.339222542823335
1.5170000000000001	0.4905378763729524	0.168816054054059	0.3371438747070171	0.6626549603639885	0.0831414257388249	0.3338082561449202
1.518	0.4909101917700192	0.1703293683858554	0.3360674416261774	0.6565225502716443	0.0813430842075844	0.3284617070669174
1.5190000000000001	0.4913508607131924	0.1718083624615818	0.3349853899648283	0.6504890786218919	0.0795917705898049	0.3231838263264895
1.52	0.491862111612835	0.1732513411792752	0.3338988476275832	0.6445572197812564	0.0778892353103342	0.3179754857106577
1.5210000000000001	0.492446121879159	0.1746566995833658	0.3328089556856231	0.6387294159393508	0.0762372028083674	0.3128375015669732
1.522	0.4931050131604375	0.176022922922575	0.3317168653365211	0.6330078774789869	0.0746373709139115	0.3077706384122297
1.5230000000000001	0.4938408466403097	0.1773485866031151	0.3306237349108334	0.6273945836628463	0.0730914102714055	0.302775612630306
1.524	0.494655618403208	0.1786323560380762	0.3295307269319052	0.6218912836297302	0.0716009638086987	0.2978530962503434
1.5250000000000001	0.4955512548774655	0.179872986393983	0.3284390052344934	0.6164994976928295	0.0701676462494341	0.2930037207959321
1.526	0.4965296083654906	0.1810693222355192	0.3273497321489224	0.6112205189316008	0.0687930436667503	0.2882280811955334
1.5270000000000001	0.4975924526695504	0.1822202970690006	0.3262640657565775	0.6060554150682985	0.067478713076192	0.283526739743592
1.528	0.4987414788208168	0.1833249327856881	0.3251831572229816	0.6010050306197035	0.0662261820655193	0.2789002301014155
1.5290000000000001	0.4999782909180252	0.1843823390058761	0.3241081482142346	0.5960699893143031	0.0650369484590754	0.2743490613263025
1.53	0.5013044020809561	0.1853917123251097	0.3230401684025061	0.5912506967648123	0.0639124800141854	0.2698737219168089
1.5310000000000001	0.5027212305228026	0.1863523354643904	0.3219803330655737	0.5865473433856138	0.0628542141470505	0.2654746838613952
1.532	0.504230095744784	0.1872635763261734	0.3209297407857833	0.58195990754443	0.0618635576854208	0.2611524066770481
1.5330000000000001	0.5058322148559067	0.1881248869588924	0.3198894712520155	0.5774881589373544	0.0609418866452999	0.2569073414239977
1.534	0.5075286990206276	0.1889358024329932	0.3188605831688229	0.5731316621766653	0.0600905460289676	0.2527399346824514
1.5350000000000001	0.5093205500366471	0.1896959396318569	0.3178441122752029	0.5688897805814428	0.0593108496416298	0.2486506324770517
1.536	0.5112086570449366	0.1904049959613678	0.3168410694754693	0.5647616801618448	0.0586040799242323	0.2446398841348346
1.537	0.5131937933740337	0.191062747981518	0.3158524390832082	0.5607463337885555	0.0579714878001594	0.2407081460628105
1.538	0.5152766135215668	0.1916690499632797	0.3148791771798859	0.5568425255397769	0.0574142925336342	0.2368558854317236
1.539	0.5174576502771375	0.1922238323731934	0.3139222100875945	0.5530488552197319	0.0569336815977826	0.2330835837530499
1.54	0.5197373119919166	0.1927271002879786	0.3129824329566055	0.5493637430452484	0.0565308105503309	0.2293917403369967
1.541	0.5221158800012728	0.1931789317411861	0.3120607084667925	0.5457854344998768	0.0562068029151363	0.2257808756196093
1.542	0.5245935062075056	0.1935794760038051	0.3111578656421381	0.542312005357045	0.0559627500676991	0.2222515343477727
1.543	0.5271702108303392	0.1939289518011903	0.3102746987778096	0.5389413668745807	0.0557997111229183	0.218804288611254
1.544	0.5298458803332915	0.1942276454686708	0.309411966478326	0.5356712711626498	0.0557187128232973	0.2154397407117274
1.545	0.5326202655346326	0.1944759090490836	0.3085703908047777	0.5324993167263325	0.0557207494258827	0.2121585258592662
1.546	0.5354929799120631	0.1946741583360703	0.3077506565296439	0.5294229541829703	0.0558067825862409	0.2089613146873091
1.547	0.5384634981108374	0.1948228708681253	0.3069534104964284	0.526439492153487	0.0559777412379618	0.2058488155775207
1.548	0.5415311546650822	0.1949225838792062	0.3061792610818096	0.5235461033258882	0.0562345214663305	0.2028217767866951
1.549	0.5446951429420881	0.1949738922124272	0.3054287777578831	0.520739830688064	0.0565779863749739	0.1998809883688374
1.55	0.5479545143185252	0.1949774462034293	0.3047024907516997	0.518017593925642	0.0570089659446397	0.1970272838872874
1.551	0.551308177596756	0.1949339495399116	0.3040008907981996	0.5153761959790935	0.0575282568835326	0.1942615419133841
1.552	0.5547548986686347	0.1948441571038618	0.3033244289836772	0.512812329752787	0.0581366224690663	0.1915846873104829
